<svg xmlns="http://www.w3.org/2000/svg" width="820" height="520" viewBox="0 0 820 520">
<rect width="100%" height="100%" fill="white"/>
<text x="410.0" y="38" text-anchor="middle" font-family="sans-serif" font-size="18">Geom 1e9 recommender medium: serial vs astar_mpi_fast (same CPU node type)</text>
<text x="410.0" y="58" text-anchor="middle" font-family="sans-serif" font-size="12" fill="#444">start=0 goal=999999999  w=1  k=64 candidates=512  n=1e9</text>
<line x1="120" y1="380" x2="780" y2="380" stroke="#222" stroke-width="2"/>
<line x1="120" y1="380" x2="120" y2="72" stroke="#222" stroke-width="2"/>
<line x1="120" y1="380.00" x2="780" y2="380.00" stroke="#eee" stroke-width="1"/>
<line x1="114" y1="380.00" x2="120" y2="380.00" stroke="#222" stroke-width="2"/>
<text x="110" y="384.00" text-anchor="end" font-family="sans-serif" font-size="12">0</text>
<line x1="120" y1="318.40" x2="780" y2="318.40" stroke="#eee" stroke-width="1"/>
<line x1="114" y1="318.40" x2="120" y2="318.40" stroke="#222" stroke-width="2"/>
<text x="110" y="322.40" text-anchor="end" font-family="sans-serif" font-size="12">73</text>
<line x1="120" y1="256.80" x2="780" y2="256.80" stroke="#eee" stroke-width="1"/>
<line x1="114" y1="256.80" x2="120" y2="256.80" stroke="#222" stroke-width="2"/>
<text x="110" y="260.80" text-anchor="end" font-family="sans-serif" font-size="12">147</text>
<line x1="120" y1="195.20" x2="780" y2="195.20" stroke="#eee" stroke-width="1"/>
<line x1="114" y1="195.20" x2="120" y2="195.20" stroke="#222" stroke-width="2"/>
<text x="110" y="199.20" text-anchor="end" font-family="sans-serif" font-size="12">220</text>
<line x1="120" y1="133.60" x2="780" y2="133.60" stroke="#eee" stroke-width="1"/>
<line x1="114" y1="133.60" x2="120" y2="133.60" stroke="#222" stroke-width="2"/>
<text x="110" y="137.60" text-anchor="end" font-family="sans-serif" font-size="12">293</text>
<line x1="120" y1="72.00" x2="780" y2="72.00" stroke="#eee" stroke-width="1"/>
<line x1="114" y1="72.00" x2="120" y2="72.00" stroke="#222" stroke-width="2"/>
<text x="110" y="76.00" text-anchor="end" font-family="sans-serif" font-size="12">367</text>
<rect x="182.70" y="105.00" width="204.60" height="275.00" fill="#1f77b4" opacity="0.88" stroke="white" stroke-width="1"/>
<text x="285.00" y="97.00" text-anchor="middle" font-family="sans-serif" font-size="13" fill="#111">327.4s</text>
<text x="285.00" y="402.00" text-anchor="middle" font-family="sans-serif" font-size="13">Serial</text>
<rect x="512.70" y="138.89" width="204.60" height="241.11" fill="#d62728" opacity="0.88" stroke="white" stroke-width="1"/>
<text x="615.00" y="130.89" text-anchor="middle" font-family="sans-serif" font-size="13" fill="#111">287.0s</text>
<text x="615.00" y="402.00" text-anchor="middle" font-family="sans-serif" font-size="13">MPI fast OMP=8</text>
<text x="16" y="226.0" text-anchor="middle" font-family="sans-serif" font-size="15" transform="rotate(-90 16 226.0)">time (s)</text>
</svg>