<svg xmlns="http://www.w3.org/2000/svg" width="900" height="520" viewBox="0 0 900 520">
<rect width="100%" height="100%" fill="white"/>
<text x="450" y="32" text-anchor="middle" font-family="sans-serif" font-size="18">Threads vs time (Geom heavy n=1e8, k=256, candidates=65536, w=1)</text>
<line x1="90" y1="440" x2="870" y2="440" stroke="#222" stroke-width="2"/>
<line x1="90" y1="440" x2="90" y2="50" stroke="#222" stroke-width="2"/>
<line x1="90.00" y1="440" x2="90.00" y2="50" stroke="#ddd" stroke-width="1"/>
<line x1="90.00" y1="440" x2="90.00" y2="446" stroke="#222" stroke-width="2"/>
<text x="90.00" y="480" text-anchor="middle" font-family="sans-serif" font-size="14">1</text>
<line x1="480.00" y1="440" x2="480.00" y2="50" stroke="#ddd" stroke-width="1"/>
<line x1="480.00" y1="440" x2="480.00" y2="446" stroke="#222" stroke-width="2"/>
<text x="480.00" y="480" text-anchor="middle" font-family="sans-serif" font-size="14">8</text>
<line x1="870.00" y1="440" x2="870.00" y2="50" stroke="#ddd" stroke-width="1"/>
<line x1="870.00" y1="440" x2="870.00" y2="446" stroke="#222" stroke-width="2"/>
<text x="870.00" y="480" text-anchor="middle" font-family="sans-serif" font-size="14">64</text>
<line x1="90" y1="440.00" x2="870" y2="440.00" stroke="#eee" stroke-width="1"/>
<line x1="84" y1="440.00" x2="90" y2="440.00" stroke="#222" stroke-width="2"/>
<text x="80" y="445.00" text-anchor="end" font-family="sans-serif" font-size="12">68.1</text>
<line x1="90" y1="362.00" x2="870" y2="362.00" stroke="#eee" stroke-width="1"/>
<line x1="84" y1="362.00" x2="90" y2="362.00" stroke="#222" stroke-width="2"/>
<text x="80" y="367.00" text-anchor="end" font-family="sans-serif" font-size="12">75.5</text>
<line x1="90" y1="284.00" x2="870" y2="284.00" stroke="#eee" stroke-width="1"/>
<line x1="84" y1="284.00" x2="90" y2="284.00" stroke="#222" stroke-width="2"/>
<text x="80" y="289.00" text-anchor="end" font-family="sans-serif" font-size="12">83.0</text>
<line x1="90" y1="206.00" x2="870" y2="206.00" stroke="#eee" stroke-width="1"/>
<line x1="84" y1="206.00" x2="90" y2="206.00" stroke="#222" stroke-width="2"/>
<text x="80" y="211.00" text-anchor="end" font-family="sans-serif" font-size="12">90.4</text>
<line x1="90" y1="128.00" x2="870" y2="128.00" stroke="#eee" stroke-width="1"/>
<line x1="84" y1="128.00" x2="90" y2="128.00" stroke="#222" stroke-width="2"/>
<text x="80" y="133.00" text-anchor="end" font-family="sans-serif" font-size="12">97.9</text>
<line x1="90" y1="50.00" x2="870" y2="50.00" stroke="#eee" stroke-width="1"/>
<line x1="84" y1="50.00" x2="90" y2="50.00" stroke="#222" stroke-width="2"/>
<text x="80" y="55.00" text-anchor="end" font-family="sans-serif" font-size="12">105.3</text>
<text x="480.00" y="508" text-anchor="middle" font-family="sans-serif" font-size="15">OpenMP threads (log2)</text>
<text x="18" y="245.00" text-anchor="middle" font-family="sans-serif" font-size="15" transform="rotate(-90 18 245.00)">time (s)</text>
<polyline fill="none" stroke="#1f77b4" stroke-width="3" points="90.00,87.88 480.00,419.83 870.00,352.04"/>
<circle cx="90.00" cy="87.88" r="5" fill="#1f77b4" stroke="white" stroke-width="1.5"/>
<circle cx="480.00" cy="419.83" r="5" fill="#1f77b4" stroke="white" stroke-width="1.5"/>
<circle cx="870.00" cy="352.04" r="5" fill="#1f77b4" stroke="white" stroke-width="1.5"/>
<polyline fill="none" stroke="#d62728" stroke-width="3" points="90.00,83.62 480.00,415.59 870.00,348.06"/>
<circle cx="90.00" cy="83.62" r="5" fill="#d62728" stroke="white" stroke-width="1.5"/>
<circle cx="480.00" cy="415.59" r="5" fill="#d62728" stroke="white" stroke-width="1.5"/>
<circle cx="870.00" cy="348.06" r="5" fill="#d62728" stroke="white" stroke-width="1.5"/>
<rect x="530" y="60" width="320" height="62" fill="white" stroke="#ccc"/>
<line x1="548" y1="80" x2="588" y2="80" stroke="#1f77b4" stroke-width="4"/>
<circle cx="568" cy="80" r="5" fill="#1f77b4" stroke="white" stroke-width="1.5"/>
<text x="600" y="85" font-family="sans-serif" font-size="13">std::priority_queue (STL)</text>
<line x1="548" y1="104" x2="588" y2="104" stroke="#d62728" stroke-width="4"/>
<circle cx="568" cy="104" r="5" fill="#d62728" stroke="white" stroke-width="1.5"/>
<text x="600" y="109" font-family="sans-serif" font-size="13">custom OPEN (MPMC + cache heap)</text>
</svg>